<mxfile host="Electron" modified="2024-12-26T16:38:33.343Z" agent="Mozilla/5.0 (Windows NT 10.0; Win64; x64) AppleWebKit/537.36 (KHTML, like Gecko) draw.io/22.1.2 Chrome/114.0.5735.289 Electron/25.9.4 Safari/537.36" etag="8_NS1czj_yhLENYAERK_" version="22.1.2" type="device">
  <diagram id="R2lEEEUBdFMjLlhIrx00" name="Page-1">
    <mxGraphModel dx="3358" dy="820" grid="1" gridSize="10" guides="1" tooltips="1" connect="1" arrows="1" fold="1" page="1" pageScale="1" pageWidth="850" pageHeight="1100" math="0" shadow="0" extFonts="Permanent Marker^https://fonts.googleapis.com/css?family=Permanent+Marker">
      <root>
        <mxCell id="0" />
        <mxCell id="1" parent="0" />
        <mxCell id="QebJ3ofcSr1ksDJGPEAw-1" value="user" style="rounded=0;whiteSpace=wrap;html=1;" parent="1" vertex="1">
          <mxGeometry x="-1350" y="270" width="120" height="60" as="geometry" />
        </mxCell>
        <mxCell id="QebJ3ofcSr1ksDJGPEAw-4" value="phone number&amp;nbsp;" style="ellipse;whiteSpace=wrap;html=1;" parent="1" vertex="1">
          <mxGeometry x="-1410" y="620" width="120" height="80" as="geometry" />
        </mxCell>
        <mxCell id="QebJ3ofcSr1ksDJGPEAw-6" value="&lt;u&gt;userID&lt;/u&gt;" style="ellipse;whiteSpace=wrap;html=1;" parent="1" vertex="1">
          <mxGeometry x="-1530" y="260" width="120" height="80" as="geometry" />
        </mxCell>
        <mxCell id="QebJ3ofcSr1ksDJGPEAw-7" value="UserName" style="ellipse;whiteSpace=wrap;html=1;" parent="1" vertex="1">
          <mxGeometry x="-1530" y="180" width="120" height="80" as="geometry" />
        </mxCell>
        <mxCell id="QebJ3ofcSr1ksDJGPEAw-8" value="Hashed&lt;br&gt;&amp;nbsp;Password" style="ellipse;whiteSpace=wrap;html=1;" parent="1" vertex="1">
          <mxGeometry x="-1310" y="160" width="120" height="80" as="geometry" />
        </mxCell>
        <mxCell id="QebJ3ofcSr1ksDJGPEAw-9" value="email" style="ellipse;whiteSpace=wrap;html=1;" parent="1" vertex="1">
          <mxGeometry x="-1420" y="160" width="120" height="80" as="geometry" />
        </mxCell>
        <mxCell id="QebJ3ofcSr1ksDJGPEAw-11" value="order_items" style="rounded=0;whiteSpace=wrap;html=1;" parent="1" vertex="1">
          <mxGeometry x="-700" y="590" width="120" height="60" as="geometry" />
        </mxCell>
        <mxCell id="QebJ3ofcSr1ksDJGPEAw-12" value="city" style="ellipse;whiteSpace=wrap;html=1;" parent="1" vertex="1">
          <mxGeometry x="-1325" y="500" width="120" height="80" as="geometry" />
        </mxCell>
        <mxCell id="QebJ3ofcSr1ksDJGPEAw-13" value="amount" style="ellipse;whiteSpace=wrap;html=1;" parent="1" vertex="1">
          <mxGeometry x="-530" y="570" width="120" height="80" as="geometry" />
        </mxCell>
        <mxCell id="QebJ3ofcSr1ksDJGPEAw-14" value="price" style="ellipse;whiteSpace=wrap;html=1;" parent="1" vertex="1">
          <mxGeometry x="-520" y="670" width="120" height="80" as="geometry" />
        </mxCell>
        <mxCell id="QebJ3ofcSr1ksDJGPEAw-15" value="ProductID" style="ellipse;whiteSpace=wrap;html=1;" parent="1" vertex="1">
          <mxGeometry x="-630" y="470" width="120" height="80" as="geometry" />
        </mxCell>
        <mxCell id="QebJ3ofcSr1ksDJGPEAw-17" value="OrderID" style="ellipse;whiteSpace=wrap;html=1;" parent="1" vertex="1">
          <mxGeometry x="-520" y="490" width="120" height="80" as="geometry" />
        </mxCell>
        <mxCell id="QebJ3ofcSr1ksDJGPEAw-19" value="orders" style="rounded=0;whiteSpace=wrap;html=1;" parent="1" vertex="1">
          <mxGeometry x="-1190" y="640" width="120" height="60" as="geometry" />
        </mxCell>
        <mxCell id="QebJ3ofcSr1ksDJGPEAw-25" value="Admin" style="ellipse;whiteSpace=wrap;html=1;" parent="1" vertex="1">
          <mxGeometry x="-1530" y="330" width="110" height="80" as="geometry" />
        </mxCell>
        <mxCell id="QebJ3ofcSr1ksDJGPEAw-26" value="firstname" style="ellipse;whiteSpace=wrap;html=1;" parent="1" vertex="1">
          <mxGeometry x="-1450" y="380" width="120" height="80" as="geometry" />
        </mxCell>
        <mxCell id="QebJ3ofcSr1ksDJGPEAw-27" value="lastname" style="ellipse;whiteSpace=wrap;html=1;" parent="1" vertex="1">
          <mxGeometry x="-1190" y="170" width="120" height="80" as="geometry" />
        </mxCell>
        <mxCell id="QebJ3ofcSr1ksDJGPEAw-30" value="address" style="ellipse;whiteSpace=wrap;html=1;" parent="1" vertex="1">
          <mxGeometry x="-1410" y="550" width="120" height="80" as="geometry" />
        </mxCell>
        <mxCell id="QebJ3ofcSr1ksDJGPEAw-31" value="made@" style="ellipse;whiteSpace=wrap;html=1;" parent="1" vertex="1">
          <mxGeometry x="-1400" y="770" width="120" height="80" as="geometry" />
        </mxCell>
        <mxCell id="QebJ3ofcSr1ksDJGPEAw-32" value="&lt;u&gt;orderID&lt;/u&gt;" style="ellipse;whiteSpace=wrap;html=1;" parent="1" vertex="1">
          <mxGeometry x="-1050" y="490" width="120" height="80" as="geometry" />
        </mxCell>
        <mxCell id="QebJ3ofcSr1ksDJGPEAw-33" value="name" style="ellipse;whiteSpace=wrap;html=1;" parent="1" vertex="1">
          <mxGeometry x="-1410" y="690" width="120" height="80" as="geometry" />
        </mxCell>
        <mxCell id="QebJ3ofcSr1ksDJGPEAw-34" value="userID" style="ellipse;whiteSpace=wrap;html=1;" parent="1" vertex="1">
          <mxGeometry x="-1000" y="800" width="120" height="80" as="geometry" />
        </mxCell>
        <mxCell id="QebJ3ofcSr1ksDJGPEAw-35" value="country" style="ellipse;whiteSpace=wrap;html=1;" parent="1" vertex="1">
          <mxGeometry x="-1160" y="480" width="120" height="80" as="geometry" />
        </mxCell>
        <mxCell id="QebJ3ofcSr1ksDJGPEAw-36" value="total" style="ellipse;whiteSpace=wrap;html=1;" parent="1" vertex="1">
          <mxGeometry x="-1325" y="810" width="120" height="80" as="geometry" />
        </mxCell>
        <mxCell id="QebJ3ofcSr1ksDJGPEAw-73" value="product&lt;br&gt;" style="rounded=0;whiteSpace=wrap;html=1;" parent="1" vertex="1">
          <mxGeometry x="-320" y="140" width="120" height="60" as="geometry" />
        </mxCell>
        <mxCell id="QebJ3ofcSr1ksDJGPEAw-76" value="imagePath" style="ellipse;whiteSpace=wrap;html=1;" parent="1" vertex="1">
          <mxGeometry x="-170" y="30" width="120" height="80" as="geometry" />
        </mxCell>
        <mxCell id="QebJ3ofcSr1ksDJGPEAw-78" value="showonweb" style="ellipse;whiteSpace=wrap;html=1;" parent="1" vertex="1">
          <mxGeometry x="-170" y="90" width="120" height="80" as="geometry" />
        </mxCell>
        <mxCell id="QebJ3ofcSr1ksDJGPEAw-79" value="author" style="ellipse;whiteSpace=wrap;html=1;" parent="1" vertex="1">
          <mxGeometry x="-290" y="30" width="120" height="80" as="geometry" />
        </mxCell>
        <mxCell id="QebJ3ofcSr1ksDJGPEAw-80" value="price" style="ellipse;whiteSpace=wrap;html=1;" parent="1" vertex="1">
          <mxGeometry x="-155" y="260" width="75" height="90" as="geometry" />
        </mxCell>
        <mxCell id="QebJ3ofcSr1ksDJGPEAw-81" value="productname" style="ellipse;whiteSpace=wrap;html=1;" parent="1" vertex="1">
          <mxGeometry x="-410" y="30" width="120" height="80" as="geometry" />
        </mxCell>
        <mxCell id="QebJ3ofcSr1ksDJGPEAw-83" value="&lt;u&gt;productID&lt;/u&gt;" style="ellipse;whiteSpace=wrap;html=1;direction=west;" parent="1" vertex="1">
          <mxGeometry x="-250" y="255" width="95" height="90" as="geometry" />
        </mxCell>
        <mxCell id="QebJ3ofcSr1ksDJGPEAw-90" value="sale" style="ellipse;whiteSpace=wrap;html=1;" parent="1" vertex="1">
          <mxGeometry x="-520" y="100" width="120" height="80" as="geometry" />
        </mxCell>
        <mxCell id="Qfdq_ZXQbuD-KAgKmHoL-1" value="" style="endArrow=none;html=1;rounded=0;entryX=0.083;entryY=0.775;entryDx=0;entryDy=0;entryPerimeter=0;exitX=1;exitY=0;exitDx=0;exitDy=0;" parent="1" source="QebJ3ofcSr1ksDJGPEAw-1" target="QebJ3ofcSr1ksDJGPEAw-27" edge="1">
          <mxGeometry width="50" height="50" relative="1" as="geometry">
            <mxPoint x="-960" y="560" as="sourcePoint" />
            <mxPoint x="-910" y="510" as="targetPoint" />
          </mxGeometry>
        </mxCell>
        <mxCell id="Qfdq_ZXQbuD-KAgKmHoL-2" value="" style="endArrow=none;html=1;rounded=0;entryX=0.5;entryY=1;entryDx=0;entryDy=0;" parent="1" source="QebJ3ofcSr1ksDJGPEAw-1" target="QebJ3ofcSr1ksDJGPEAw-8" edge="1">
          <mxGeometry width="50" height="50" relative="1" as="geometry">
            <mxPoint x="-960" y="560" as="sourcePoint" />
            <mxPoint x="-910" y="510" as="targetPoint" />
          </mxGeometry>
        </mxCell>
        <mxCell id="Qfdq_ZXQbuD-KAgKmHoL-3" value="" style="endArrow=none;html=1;rounded=0;entryX=0.5;entryY=1;entryDx=0;entryDy=0;exitX=0.25;exitY=0;exitDx=0;exitDy=0;" parent="1" source="QebJ3ofcSr1ksDJGPEAw-1" target="QebJ3ofcSr1ksDJGPEAw-9" edge="1">
          <mxGeometry width="50" height="50" relative="1" as="geometry">
            <mxPoint x="-960" y="560" as="sourcePoint" />
            <mxPoint x="-910" y="510" as="targetPoint" />
          </mxGeometry>
        </mxCell>
        <mxCell id="Qfdq_ZXQbuD-KAgKmHoL-5" value="" style="endArrow=none;html=1;rounded=0;entryX=0;entryY=0.5;entryDx=0;entryDy=0;exitX=1;exitY=0.5;exitDx=0;exitDy=0;" parent="1" source="QebJ3ofcSr1ksDJGPEAw-6" target="QebJ3ofcSr1ksDJGPEAw-1" edge="1">
          <mxGeometry width="50" height="50" relative="1" as="geometry">
            <mxPoint x="-1260" y="290" as="sourcePoint" />
            <mxPoint x="-1170" y="242" as="targetPoint" />
          </mxGeometry>
        </mxCell>
        <mxCell id="Qfdq_ZXQbuD-KAgKmHoL-6" value="" style="endArrow=none;html=1;rounded=0;entryX=0;entryY=0.25;entryDx=0;entryDy=0;exitX=0.925;exitY=0.863;exitDx=0;exitDy=0;exitPerimeter=0;" parent="1" source="QebJ3ofcSr1ksDJGPEAw-7" target="QebJ3ofcSr1ksDJGPEAw-1" edge="1">
          <mxGeometry width="50" height="50" relative="1" as="geometry">
            <mxPoint x="-1250" y="300" as="sourcePoint" />
            <mxPoint x="-1160" y="252" as="targetPoint" />
          </mxGeometry>
        </mxCell>
        <mxCell id="Qfdq_ZXQbuD-KAgKmHoL-7" value="" style="endArrow=none;html=1;rounded=0;entryX=0;entryY=0.75;entryDx=0;entryDy=0;" parent="1" source="QebJ3ofcSr1ksDJGPEAw-25" target="QebJ3ofcSr1ksDJGPEAw-1" edge="1">
          <mxGeometry width="50" height="50" relative="1" as="geometry">
            <mxPoint x="-1240" y="310" as="sourcePoint" />
            <mxPoint x="-1150" y="262" as="targetPoint" />
          </mxGeometry>
        </mxCell>
        <mxCell id="Qfdq_ZXQbuD-KAgKmHoL-8" value="" style="endArrow=none;html=1;rounded=0;entryX=0.25;entryY=1;entryDx=0;entryDy=0;" parent="1" source="QebJ3ofcSr1ksDJGPEAw-26" target="QebJ3ofcSr1ksDJGPEAw-1" edge="1">
          <mxGeometry width="50" height="50" relative="1" as="geometry">
            <mxPoint x="-1230" y="320" as="sourcePoint" />
            <mxPoint x="-1140" y="272" as="targetPoint" />
          </mxGeometry>
        </mxCell>
        <mxCell id="Qfdq_ZXQbuD-KAgKmHoL-9" value="Feature" style="ellipse;whiteSpace=wrap;html=1;direction=west;" parent="1" vertex="1">
          <mxGeometry x="-110" y="215" width="80" height="65" as="geometry" />
        </mxCell>
        <mxCell id="Qfdq_ZXQbuD-KAgKmHoL-10" value="madeby" style="ellipse;whiteSpace=wrap;html=1;direction=west;" parent="1" vertex="1">
          <mxGeometry x="-510" y="30" width="120" height="80" as="geometry" />
        </mxCell>
        <mxCell id="Qfdq_ZXQbuD-KAgKmHoL-11" value="description" style="ellipse;whiteSpace=wrap;html=1;direction=west;" parent="1" vertex="1">
          <mxGeometry x="-110" y="170" width="70" height="50" as="geometry" />
        </mxCell>
        <mxCell id="Qfdq_ZXQbuD-KAgKmHoL-12" value="" style="endArrow=none;html=1;rounded=0;entryX=1;entryY=1;entryDx=0;entryDy=0;exitX=0.25;exitY=0;exitDx=0;exitDy=0;" parent="1" source="QebJ3ofcSr1ksDJGPEAw-73" target="QebJ3ofcSr1ksDJGPEAw-81" edge="1">
          <mxGeometry width="50" height="50" relative="1" as="geometry">
            <mxPoint x="-1192" y="284" as="sourcePoint" />
            <mxPoint x="-1150" y="230" as="targetPoint" />
          </mxGeometry>
        </mxCell>
        <mxCell id="Qfdq_ZXQbuD-KAgKmHoL-13" value="" style="endArrow=none;html=1;rounded=0;entryX=0;entryY=0;entryDx=0;entryDy=0;exitX=0;exitY=0;exitDx=0;exitDy=0;" parent="1" source="QebJ3ofcSr1ksDJGPEAw-73" target="Qfdq_ZXQbuD-KAgKmHoL-10" edge="1">
          <mxGeometry width="50" height="50" relative="1" as="geometry">
            <mxPoint x="-1182" y="294" as="sourcePoint" />
            <mxPoint x="-1140" y="240" as="targetPoint" />
          </mxGeometry>
        </mxCell>
        <mxCell id="Qfdq_ZXQbuD-KAgKmHoL-14" value="" style="endArrow=none;html=1;rounded=0;entryX=1;entryY=0.5;entryDx=0;entryDy=0;exitX=0;exitY=0.25;exitDx=0;exitDy=0;" parent="1" source="QebJ3ofcSr1ksDJGPEAw-73" target="QebJ3ofcSr1ksDJGPEAw-90" edge="1">
          <mxGeometry width="50" height="50" relative="1" as="geometry">
            <mxPoint x="-1172" y="304" as="sourcePoint" />
            <mxPoint x="-1130" y="250" as="targetPoint" />
          </mxGeometry>
        </mxCell>
        <mxCell id="Qfdq_ZXQbuD-KAgKmHoL-15" value="" style="endArrow=none;html=1;rounded=0;entryX=0.5;entryY=1;entryDx=0;entryDy=0;exitX=0.75;exitY=1;exitDx=0;exitDy=0;" parent="1" source="QebJ3ofcSr1ksDJGPEAw-73" target="QebJ3ofcSr1ksDJGPEAw-83" edge="1">
          <mxGeometry width="50" height="50" relative="1" as="geometry">
            <mxPoint x="-1162" y="314" as="sourcePoint" />
            <mxPoint x="-1120" y="260" as="targetPoint" />
          </mxGeometry>
        </mxCell>
        <mxCell id="Qfdq_ZXQbuD-KAgKmHoL-16" value="" style="endArrow=none;html=1;rounded=0;entryX=0.5;entryY=1;entryDx=0;entryDy=0;exitX=0.5;exitY=0;exitDx=0;exitDy=0;" parent="1" source="QebJ3ofcSr1ksDJGPEAw-73" target="QebJ3ofcSr1ksDJGPEAw-79" edge="1">
          <mxGeometry width="50" height="50" relative="1" as="geometry">
            <mxPoint x="-1152" y="324" as="sourcePoint" />
            <mxPoint x="-1110" y="270" as="targetPoint" />
          </mxGeometry>
        </mxCell>
        <mxCell id="Qfdq_ZXQbuD-KAgKmHoL-17" value="" style="endArrow=none;html=1;rounded=0;entryX=1;entryY=0.75;entryDx=0;entryDy=0;exitX=1;exitY=0.638;exitDx=0;exitDy=0;exitPerimeter=0;" parent="1" source="Qfdq_ZXQbuD-KAgKmHoL-9" target="QebJ3ofcSr1ksDJGPEAw-73" edge="1">
          <mxGeometry width="50" height="50" relative="1" as="geometry">
            <mxPoint x="-310" y="195" as="sourcePoint" />
            <mxPoint x="-400" y="215" as="targetPoint" />
          </mxGeometry>
        </mxCell>
        <mxCell id="Qfdq_ZXQbuD-KAgKmHoL-18" value="" style="endArrow=none;html=1;rounded=0;entryX=0.75;entryY=1;entryDx=0;entryDy=0;" parent="1" source="QebJ3ofcSr1ksDJGPEAw-80" target="QebJ3ofcSr1ksDJGPEAw-73" edge="1">
          <mxGeometry width="50" height="50" relative="1" as="geometry">
            <mxPoint x="-300" y="205" as="sourcePoint" />
            <mxPoint x="-390" y="225" as="targetPoint" />
          </mxGeometry>
        </mxCell>
        <mxCell id="Qfdq_ZXQbuD-KAgKmHoL-19" value="" style="endArrow=none;html=1;rounded=0;exitX=0;exitY=0.5;exitDx=0;exitDy=0;" parent="1" source="QebJ3ofcSr1ksDJGPEAw-78" edge="1">
          <mxGeometry width="50" height="50" relative="1" as="geometry">
            <mxPoint x="-290" y="215" as="sourcePoint" />
            <mxPoint x="-200" y="140" as="targetPoint" />
          </mxGeometry>
        </mxCell>
        <mxCell id="Qfdq_ZXQbuD-KAgKmHoL-20" value="" style="endArrow=none;html=1;rounded=0;entryX=1;entryY=0.5;entryDx=0;entryDy=0;exitX=1;exitY=0.5;exitDx=0;exitDy=0;" parent="1" source="Qfdq_ZXQbuD-KAgKmHoL-11" target="QebJ3ofcSr1ksDJGPEAw-73" edge="1">
          <mxGeometry width="50" height="50" relative="1" as="geometry">
            <mxPoint x="-280" y="225" as="sourcePoint" />
            <mxPoint x="-370" y="245" as="targetPoint" />
          </mxGeometry>
        </mxCell>
        <mxCell id="Qfdq_ZXQbuD-KAgKmHoL-21" value="" style="endArrow=none;html=1;rounded=0;entryX=0.883;entryY=0;entryDx=0;entryDy=0;exitX=0.042;exitY=0.75;exitDx=0;exitDy=0;exitPerimeter=0;entryPerimeter=0;" parent="1" source="QebJ3ofcSr1ksDJGPEAw-76" target="QebJ3ofcSr1ksDJGPEAw-73" edge="1">
          <mxGeometry width="50" height="50" relative="1" as="geometry">
            <mxPoint x="-270" y="235" as="sourcePoint" />
            <mxPoint x="-360" y="255" as="targetPoint" />
          </mxGeometry>
        </mxCell>
        <mxCell id="Qfdq_ZXQbuD-KAgKmHoL-22" value="productID" style="ellipse;whiteSpace=wrap;html=1;direction=west;" parent="1" vertex="1">
          <mxGeometry x="-720" y="15" width="120" height="90" as="geometry" />
        </mxCell>
        <mxCell id="Qfdq_ZXQbuD-KAgKmHoL-23" value="product_genre" style="rounded=0;whiteSpace=wrap;html=1;" parent="1" vertex="1">
          <mxGeometry x="-780" y="125" width="120" height="60" as="geometry" />
        </mxCell>
        <mxCell id="Qfdq_ZXQbuD-KAgKmHoL-25" value="gerneID" style="ellipse;whiteSpace=wrap;html=1;direction=west;" parent="1" vertex="1">
          <mxGeometry x="-860" y="10" width="120" height="90" as="geometry" />
        </mxCell>
        <mxCell id="Qfdq_ZXQbuD-KAgKmHoL-26" value="" style="endArrow=none;html=1;rounded=0;entryX=0.5;entryY=0;entryDx=0;entryDy=0;exitX=0.25;exitY=0;exitDx=0;exitDy=0;" parent="1" source="Qfdq_ZXQbuD-KAgKmHoL-23" target="Qfdq_ZXQbuD-KAgKmHoL-25" edge="1">
          <mxGeometry width="50" height="50" relative="1" as="geometry">
            <mxPoint x="-330" y="145" as="sourcePoint" />
            <mxPoint x="-420" y="165" as="targetPoint" />
          </mxGeometry>
        </mxCell>
        <mxCell id="Qfdq_ZXQbuD-KAgKmHoL-27" value="" style="endArrow=none;html=1;rounded=0;exitX=0.933;exitY=0.017;exitDx=0;exitDy=0;exitPerimeter=0;" parent="1" source="Qfdq_ZXQbuD-KAgKmHoL-23" target="Qfdq_ZXQbuD-KAgKmHoL-22" edge="1">
          <mxGeometry width="50" height="50" relative="1" as="geometry">
            <mxPoint x="-320" y="155" as="sourcePoint" />
            <mxPoint x="-410" y="175" as="targetPoint" />
          </mxGeometry>
        </mxCell>
        <mxCell id="Qfdq_ZXQbuD-KAgKmHoL-28" value="genre" style="rounded=0;whiteSpace=wrap;html=1;" parent="1" vertex="1">
          <mxGeometry x="-1000" y="125" width="120" height="60" as="geometry" />
        </mxCell>
        <mxCell id="Qfdq_ZXQbuD-KAgKmHoL-29" value="&lt;u&gt;gerneID&lt;/u&gt;" style="ellipse;whiteSpace=wrap;html=1;direction=west;" parent="1" vertex="1">
          <mxGeometry x="-990" width="120" height="90" as="geometry" />
        </mxCell>
        <mxCell id="Qfdq_ZXQbuD-KAgKmHoL-30" value="gerne" style="ellipse;whiteSpace=wrap;html=1;direction=west;" parent="1" vertex="1">
          <mxGeometry x="-1110" y="10" width="120" height="90" as="geometry" />
        </mxCell>
        <mxCell id="Qfdq_ZXQbuD-KAgKmHoL-32" value="" style="endArrow=none;html=1;rounded=0;entryX=0.275;entryY=0.011;entryDx=0;entryDy=0;exitX=0.25;exitY=0;exitDx=0;exitDy=0;entryPerimeter=0;" parent="1" source="Qfdq_ZXQbuD-KAgKmHoL-28" target="Qfdq_ZXQbuD-KAgKmHoL-30" edge="1">
          <mxGeometry width="50" height="50" relative="1" as="geometry">
            <mxPoint x="-740" y="135" as="sourcePoint" />
            <mxPoint x="-790" y="110" as="targetPoint" />
          </mxGeometry>
        </mxCell>
        <mxCell id="Qfdq_ZXQbuD-KAgKmHoL-33" value="" style="endArrow=none;html=1;rounded=0;entryX=0.5;entryY=0;entryDx=0;entryDy=0;exitX=0.5;exitY=0;exitDx=0;exitDy=0;" parent="1" source="Qfdq_ZXQbuD-KAgKmHoL-28" target="Qfdq_ZXQbuD-KAgKmHoL-29" edge="1">
          <mxGeometry width="50" height="50" relative="1" as="geometry">
            <mxPoint x="-730" y="145" as="sourcePoint" />
            <mxPoint x="-780" y="120" as="targetPoint" />
          </mxGeometry>
        </mxCell>
        <mxCell id="Qfdq_ZXQbuD-KAgKmHoL-34" value="postal_code" style="ellipse;whiteSpace=wrap;html=1;" parent="1" vertex="1">
          <mxGeometry x="-1230" y="810" width="120" height="80" as="geometry" />
        </mxCell>
        <mxCell id="Qfdq_ZXQbuD-KAgKmHoL-35" value="payment_method" style="ellipse;whiteSpace=wrap;html=1;" parent="1" vertex="1">
          <mxGeometry x="-1125" y="810" width="120" height="80" as="geometry" />
        </mxCell>
        <mxCell id="Qfdq_ZXQbuD-KAgKmHoL-36" value="" style="endArrow=none;html=1;rounded=0;entryX=0;entryY=0;entryDx=0;entryDy=0;" parent="1" target="QebJ3ofcSr1ksDJGPEAw-34" edge="1">
          <mxGeometry width="50" height="50" relative="1" as="geometry">
            <mxPoint x="-1070" y="700" as="sourcePoint" />
            <mxPoint x="-1100" y="290" as="targetPoint" />
            <Array as="points" />
          </mxGeometry>
        </mxCell>
        <mxCell id="Qfdq_ZXQbuD-KAgKmHoL-37" value="" style="endArrow=none;html=1;rounded=0;entryX=0.658;entryY=1;entryDx=0;entryDy=0;exitX=0.392;exitY=0;exitDx=0;exitDy=0;entryPerimeter=0;exitPerimeter=0;" parent="1" source="QebJ3ofcSr1ksDJGPEAw-19" target="QebJ3ofcSr1ksDJGPEAw-35" edge="1">
          <mxGeometry width="50" height="50" relative="1" as="geometry">
            <mxPoint x="-1060" y="650" as="sourcePoint" />
            <mxPoint x="-1012" y="598" as="targetPoint" />
            <Array as="points" />
          </mxGeometry>
        </mxCell>
        <mxCell id="Qfdq_ZXQbuD-KAgKmHoL-38" value="" style="endArrow=none;html=1;rounded=0;entryX=0.717;entryY=1;entryDx=0;entryDy=0;exitX=0;exitY=0;exitDx=0;exitDy=0;entryPerimeter=0;" parent="1" source="QebJ3ofcSr1ksDJGPEAw-19" target="QebJ3ofcSr1ksDJGPEAw-12" edge="1">
          <mxGeometry width="50" height="50" relative="1" as="geometry">
            <mxPoint x="-1050" y="660" as="sourcePoint" />
            <mxPoint x="-1002" y="608" as="targetPoint" />
            <Array as="points" />
          </mxGeometry>
        </mxCell>
        <mxCell id="Qfdq_ZXQbuD-KAgKmHoL-39" value="" style="endArrow=none;html=1;rounded=0;entryX=0.4;entryY=-0.037;entryDx=0;entryDy=0;exitX=1;exitY=0.75;exitDx=0;exitDy=0;entryPerimeter=0;" parent="1" source="QebJ3ofcSr1ksDJGPEAw-19" target="Qfdq_ZXQbuD-KAgKmHoL-35" edge="1">
          <mxGeometry width="50" height="50" relative="1" as="geometry">
            <mxPoint x="-1040" y="670" as="sourcePoint" />
            <mxPoint x="-992" y="618" as="targetPoint" />
            <Array as="points" />
          </mxGeometry>
        </mxCell>
        <mxCell id="Qfdq_ZXQbuD-KAgKmHoL-40" value="" style="endArrow=none;html=1;rounded=0;entryX=0.767;entryY=0.013;entryDx=0;entryDy=0;exitX=0.617;exitY=1.067;exitDx=0;exitDy=0;exitPerimeter=0;entryPerimeter=0;" parent="1" source="QebJ3ofcSr1ksDJGPEAw-19" target="Qfdq_ZXQbuD-KAgKmHoL-34" edge="1">
          <mxGeometry width="50" height="50" relative="1" as="geometry">
            <mxPoint x="-1030" y="680" as="sourcePoint" />
            <mxPoint x="-982" y="628" as="targetPoint" />
            <Array as="points" />
          </mxGeometry>
        </mxCell>
        <mxCell id="Qfdq_ZXQbuD-KAgKmHoL-41" value="" style="endArrow=none;html=1;rounded=0;entryX=0.367;entryY=-0.025;entryDx=0;entryDy=0;exitX=0.158;exitY=0.967;exitDx=0;exitDy=0;exitPerimeter=0;entryPerimeter=0;" parent="1" source="QebJ3ofcSr1ksDJGPEAw-19" target="Qfdq_ZXQbuD-KAgKmHoL-34" edge="1">
          <mxGeometry width="50" height="50" relative="1" as="geometry">
            <mxPoint x="-1020" y="690" as="sourcePoint" />
            <mxPoint x="-972" y="638" as="targetPoint" />
            <Array as="points" />
          </mxGeometry>
        </mxCell>
        <mxCell id="Qfdq_ZXQbuD-KAgKmHoL-42" value="" style="endArrow=none;html=1;rounded=0;entryX=0.375;entryY=1.013;entryDx=0;entryDy=0;exitX=0.75;exitY=0;exitDx=0;exitDy=0;entryPerimeter=0;" parent="1" source="QebJ3ofcSr1ksDJGPEAw-19" target="QebJ3ofcSr1ksDJGPEAw-32" edge="1">
          <mxGeometry width="50" height="50" relative="1" as="geometry">
            <mxPoint x="-1010" y="700" as="sourcePoint" />
            <mxPoint x="-962" y="648" as="targetPoint" />
            <Array as="points" />
          </mxGeometry>
        </mxCell>
        <mxCell id="Qfdq_ZXQbuD-KAgKmHoL-43" value="" style="endArrow=none;html=1;rounded=0;entryX=0.908;entryY=0.188;entryDx=0;entryDy=0;exitX=0.117;exitY=1.017;exitDx=0;exitDy=0;exitPerimeter=0;entryPerimeter=0;" parent="1" source="QebJ3ofcSr1ksDJGPEAw-19" target="QebJ3ofcSr1ksDJGPEAw-31" edge="1">
          <mxGeometry width="50" height="50" relative="1" as="geometry">
            <mxPoint x="-1000" y="710" as="sourcePoint" />
            <mxPoint x="-952" y="658" as="targetPoint" />
            <Array as="points" />
          </mxGeometry>
        </mxCell>
        <mxCell id="Qfdq_ZXQbuD-KAgKmHoL-44" value="" style="endArrow=none;html=1;rounded=0;entryX=1;entryY=0.5;entryDx=0;entryDy=0;exitX=0;exitY=1;exitDx=0;exitDy=0;" parent="1" source="QebJ3ofcSr1ksDJGPEAw-19" target="QebJ3ofcSr1ksDJGPEAw-33" edge="1">
          <mxGeometry width="50" height="50" relative="1" as="geometry">
            <mxPoint x="-990" y="720" as="sourcePoint" />
            <mxPoint x="-942" y="668" as="targetPoint" />
            <Array as="points" />
          </mxGeometry>
        </mxCell>
        <mxCell id="Qfdq_ZXQbuD-KAgKmHoL-45" value="" style="endArrow=none;html=1;rounded=0;entryX=1.017;entryY=0.638;entryDx=0;entryDy=0;exitX=0;exitY=0.75;exitDx=0;exitDy=0;entryPerimeter=0;" parent="1" source="QebJ3ofcSr1ksDJGPEAw-19" target="QebJ3ofcSr1ksDJGPEAw-4" edge="1">
          <mxGeometry width="50" height="50" relative="1" as="geometry">
            <mxPoint x="-980" y="730" as="sourcePoint" />
            <mxPoint x="-932" y="678" as="targetPoint" />
            <Array as="points" />
          </mxGeometry>
        </mxCell>
        <mxCell id="Qfdq_ZXQbuD-KAgKmHoL-46" value="" style="endArrow=none;html=1;rounded=0;entryX=0;entryY=0.25;entryDx=0;entryDy=0;" parent="1" source="QebJ3ofcSr1ksDJGPEAw-30" target="QebJ3ofcSr1ksDJGPEAw-19" edge="1">
          <mxGeometry width="50" height="50" relative="1" as="geometry">
            <mxPoint x="-970" y="740" as="sourcePoint" />
            <mxPoint x="-922" y="688" as="targetPoint" />
            <Array as="points" />
          </mxGeometry>
        </mxCell>
        <mxCell id="Qfdq_ZXQbuD-KAgKmHoL-47" value="" style="endArrow=none;html=1;rounded=0;entryX=0.25;entryY=1;entryDx=0;entryDy=0;exitX=0.675;exitY=-0.037;exitDx=0;exitDy=0;exitPerimeter=0;" parent="1" source="QebJ3ofcSr1ksDJGPEAw-36" target="QebJ3ofcSr1ksDJGPEAw-19" edge="1">
          <mxGeometry width="50" height="50" relative="1" as="geometry">
            <mxPoint x="-960" y="750" as="sourcePoint" />
            <mxPoint x="-912" y="698" as="targetPoint" />
            <Array as="points" />
          </mxGeometry>
        </mxCell>
        <mxCell id="Qfdq_ZXQbuD-KAgKmHoL-48" value="sale" style="ellipse;whiteSpace=wrap;html=1;" parent="1" vertex="1">
          <mxGeometry x="-640" y="710" width="120" height="80" as="geometry" />
        </mxCell>
        <mxCell id="Qfdq_ZXQbuD-KAgKmHoL-49" value="" style="endArrow=none;html=1;rounded=0;entryX=0;entryY=1;entryDx=0;entryDy=0;exitX=0.692;exitY=0;exitDx=0;exitDy=0;exitPerimeter=0;" parent="1" target="QebJ3ofcSr1ksDJGPEAw-15" edge="1">
          <mxGeometry width="50" height="50" relative="1" as="geometry">
            <mxPoint x="-626.96" y="590" as="sourcePoint" />
            <mxPoint x="-880" y="540" as="targetPoint" />
          </mxGeometry>
        </mxCell>
        <mxCell id="Qfdq_ZXQbuD-KAgKmHoL-50" value="" style="endArrow=none;html=1;rounded=0;exitX=1;exitY=0.75;exitDx=0;exitDy=0;" parent="1" target="QebJ3ofcSr1ksDJGPEAw-14" edge="1">
          <mxGeometry width="50" height="50" relative="1" as="geometry">
            <mxPoint x="-590" y="635" as="sourcePoint" />
            <mxPoint x="-602" y="548" as="targetPoint" />
          </mxGeometry>
        </mxCell>
        <mxCell id="Qfdq_ZXQbuD-KAgKmHoL-51" value="" style="endArrow=none;html=1;rounded=0;entryX=0;entryY=0.5;entryDx=0;entryDy=0;" parent="1" target="QebJ3ofcSr1ksDJGPEAw-13" edge="1">
          <mxGeometry width="50" height="50" relative="1" as="geometry">
            <mxPoint x="-590" y="610" as="sourcePoint" />
            <mxPoint x="-592" y="558" as="targetPoint" />
          </mxGeometry>
        </mxCell>
        <mxCell id="Qfdq_ZXQbuD-KAgKmHoL-52" value="" style="endArrow=none;html=1;rounded=0;exitX=1.033;exitY=0.117;exitDx=0;exitDy=0;exitPerimeter=0;" parent="1" target="QebJ3ofcSr1ksDJGPEAw-17" edge="1">
          <mxGeometry width="50" height="50" relative="1" as="geometry">
            <mxPoint x="-586.04" y="597.02" as="sourcePoint" />
            <mxPoint x="-582" y="568" as="targetPoint" />
          </mxGeometry>
        </mxCell>
        <mxCell id="Qfdq_ZXQbuD-KAgKmHoL-53" value="" style="endArrow=none;html=1;rounded=0;entryX=0.417;entryY=-0.05;entryDx=0;entryDy=0;entryPerimeter=0;" parent="1" target="Qfdq_ZXQbuD-KAgKmHoL-48" edge="1">
          <mxGeometry width="50" height="50" relative="1" as="geometry">
            <mxPoint x="-629.0558139534883" y="650" as="sourcePoint" />
            <mxPoint x="-493" y="692" as="targetPoint" />
          </mxGeometry>
        </mxCell>
        <mxCell id="Qfdq_ZXQbuD-KAgKmHoL-54" value="" style="endArrow=none;html=1;rounded=0;exitX=0.658;exitY=1.017;exitDx=0;exitDy=0;exitPerimeter=0;entryX=0.5;entryY=0;entryDx=0;entryDy=0;" parent="1" source="QebJ3ofcSr1ksDJGPEAw-1" target="Qfdq_ZXQbuD-KAgKmHoL-56" edge="1">
          <mxGeometry width="50" height="50" relative="1" as="geometry">
            <mxPoint x="-700" y="510" as="sourcePoint" />
            <mxPoint x="-650" y="460" as="targetPoint" />
          </mxGeometry>
        </mxCell>
        <mxCell id="Qfdq_ZXQbuD-KAgKmHoL-55" value="one" style="text;html=1;align=center;verticalAlign=middle;resizable=0;points=[];autosize=1;strokeColor=none;fillColor=none;" parent="1" vertex="1">
          <mxGeometry x="-1270" y="330" width="40" height="30" as="geometry" />
        </mxCell>
        <mxCell id="Qfdq_ZXQbuD-KAgKmHoL-56" value="maakt een" style="rhombus;whiteSpace=wrap;html=1;rotation=-15;" parent="1" vertex="1">
          <mxGeometry x="-1270" y="390" width="80" height="80" as="geometry" />
        </mxCell>
        <mxCell id="Qfdq_ZXQbuD-KAgKmHoL-57" value="" style="endArrow=none;html=1;rounded=0;exitX=0.5;exitY=1;exitDx=0;exitDy=0;entryX=0.083;entryY=0;entryDx=0;entryDy=0;entryPerimeter=0;" parent="1" source="Qfdq_ZXQbuD-KAgKmHoL-56" target="QebJ3ofcSr1ksDJGPEAw-19" edge="1">
          <mxGeometry width="50" height="50" relative="1" as="geometry">
            <mxPoint x="-740" y="530" as="sourcePoint" />
            <mxPoint x="-690" y="480" as="targetPoint" />
          </mxGeometry>
        </mxCell>
        <mxCell id="Qfdq_ZXQbuD-KAgKmHoL-58" value="many" style="text;html=1;align=center;verticalAlign=middle;resizable=1;points=[];autosize=1;strokeColor=none;fillColor=none;movable=1;rotatable=1;deletable=1;editable=1;locked=0;connectable=1;" parent="1" vertex="1">
          <mxGeometry x="-1180" y="580" width="50" height="30" as="geometry" />
        </mxCell>
        <mxCell id="Qfdq_ZXQbuD-KAgKmHoL-60" value="behoort tot" style="rhombus;whiteSpace=wrap;html=1;" parent="1" vertex="1">
          <mxGeometry x="-720" y="460" width="80" height="80" as="geometry" />
        </mxCell>
        <mxCell id="Qfdq_ZXQbuD-KAgKmHoL-61" value="" style="endArrow=none;html=1;rounded=0;entryX=0.5;entryY=1;entryDx=0;entryDy=0;exitX=0.717;exitY=0.184;exitDx=0;exitDy=0;exitPerimeter=0;" parent="1" source="Qfdq_ZXQbuD-KAgKmHoL-64" target="QebJ3ofcSr1ksDJGPEAw-73" edge="1">
          <mxGeometry width="50" height="50" relative="1" as="geometry">
            <mxPoint x="-430" y="410" as="sourcePoint" />
            <mxPoint x="-380" y="360" as="targetPoint" />
          </mxGeometry>
        </mxCell>
        <mxCell id="Qfdq_ZXQbuD-KAgKmHoL-62" value="" style="endArrow=none;html=1;rounded=0;entryX=0.5;entryY=1;entryDx=0;entryDy=0;exitX=0.122;exitY=-0.014;exitDx=0;exitDy=0;exitPerimeter=0;" parent="1" source="QebJ3ofcSr1ksDJGPEAw-11" target="Qfdq_ZXQbuD-KAgKmHoL-60" edge="1">
          <mxGeometry width="50" height="50" relative="1" as="geometry">
            <mxPoint x="-690" y="530" as="sourcePoint" />
            <mxPoint x="-640" y="480" as="targetPoint" />
          </mxGeometry>
        </mxCell>
        <mxCell id="Qfdq_ZXQbuD-KAgKmHoL-66" value="" style="endArrow=none;html=1;rounded=0;entryX=0.15;entryY=0.638;entryDx=0;entryDy=0;entryPerimeter=0;exitX=1;exitY=0.25;exitDx=0;exitDy=0;" parent="1" source="Qfdq_ZXQbuD-KAgKmHoL-67" target="Qfdq_ZXQbuD-KAgKmHoL-60" edge="1">
          <mxGeometry width="50" height="50" relative="1" as="geometry">
            <mxPoint x="-710" y="570" as="sourcePoint" />
            <mxPoint x="-660" y="520" as="targetPoint" />
          </mxGeometry>
        </mxCell>
        <mxCell id="Qfdq_ZXQbuD-KAgKmHoL-69" value="behoort tot" style="rhombus;whiteSpace=wrap;html=1;" parent="1" vertex="1">
          <mxGeometry x="-620" y="150" width="80" height="80" as="geometry" />
        </mxCell>
        <mxCell id="Qfdq_ZXQbuD-KAgKmHoL-70" value="" style="endArrow=none;html=1;rounded=0;entryX=1;entryY=0.5;entryDx=0;entryDy=0;exitX=0.038;exitY=0.4;exitDx=0;exitDy=0;exitPerimeter=0;" parent="1" source="Qfdq_ZXQbuD-KAgKmHoL-69" target="Qfdq_ZXQbuD-KAgKmHoL-23" edge="1">
          <mxGeometry width="50" height="50" relative="1" as="geometry">
            <mxPoint x="-600" y="350" as="sourcePoint" />
            <mxPoint x="-550" y="300" as="targetPoint" />
          </mxGeometry>
        </mxCell>
        <mxCell id="Qfdq_ZXQbuD-KAgKmHoL-71" value="" style="endArrow=none;html=1;rounded=0;exitX=0;exitY=0.5;exitDx=0;exitDy=0;" parent="1" source="Qfdq_ZXQbuD-KAgKmHoL-72" target="Qfdq_ZXQbuD-KAgKmHoL-69" edge="1">
          <mxGeometry width="50" height="50" relative="1" as="geometry">
            <mxPoint x="-567" y="277" as="sourcePoint" />
            <mxPoint x="-630" y="215" as="targetPoint" />
          </mxGeometry>
        </mxCell>
        <mxCell id="Qfdq_ZXQbuD-KAgKmHoL-74" value="many" style="text;strokeColor=none;align=center;fillColor=none;html=1;verticalAlign=middle;whiteSpace=wrap;rounded=0;" parent="1" vertex="1">
          <mxGeometry x="-660" y="140" width="60" height="30" as="geometry" />
        </mxCell>
        <mxCell id="Qfdq_ZXQbuD-KAgKmHoL-75" value="behoort tot" style="rhombus;whiteSpace=wrap;html=1;" parent="1" vertex="1">
          <mxGeometry x="-890" y="210" width="80" height="80" as="geometry" />
        </mxCell>
        <mxCell id="Qfdq_ZXQbuD-KAgKmHoL-76" value="many" style="text;strokeColor=none;align=center;fillColor=none;html=1;verticalAlign=middle;whiteSpace=wrap;rounded=0;" parent="1" vertex="1">
          <mxGeometry x="-810" y="190" width="60" height="30" as="geometry" />
        </mxCell>
        <mxCell id="Qfdq_ZXQbuD-KAgKmHoL-77" value="" style="endArrow=none;html=1;rounded=0;exitX=0.625;exitY=0.175;exitDx=0;exitDy=0;exitPerimeter=0;entryX=0;entryY=1;entryDx=0;entryDy=0;" parent="1" source="Qfdq_ZXQbuD-KAgKmHoL-75" target="Qfdq_ZXQbuD-KAgKmHoL-23" edge="1">
          <mxGeometry width="50" height="50" relative="1" as="geometry">
            <mxPoint x="-480" y="260" as="sourcePoint" />
            <mxPoint x="-430" y="210" as="targetPoint" />
          </mxGeometry>
        </mxCell>
        <mxCell id="Qfdq_ZXQbuD-KAgKmHoL-78" value="" style="endArrow=none;html=1;rounded=0;entryX=0.75;entryY=1;entryDx=0;entryDy=0;exitX=0;exitY=0;exitDx=0;exitDy=0;" parent="1" source="Qfdq_ZXQbuD-KAgKmHoL-75" target="Qfdq_ZXQbuD-KAgKmHoL-28" edge="1">
          <mxGeometry width="50" height="50" relative="1" as="geometry">
            <mxPoint x="-480" y="260" as="sourcePoint" />
            <mxPoint x="-430" y="210" as="targetPoint" />
          </mxGeometry>
        </mxCell>
        <mxCell id="Qfdq_ZXQbuD-KAgKmHoL-80" value="one" style="text;html=1;align=center;verticalAlign=middle;resizable=0;points=[];autosize=1;strokeColor=none;fillColor=none;" parent="1" vertex="1">
          <mxGeometry x="-940" y="185" width="40" height="30" as="geometry" />
        </mxCell>
        <mxCell id="Qfdq_ZXQbuD-KAgKmHoL-81" value="winkelmand" style="rounded=0;whiteSpace=wrap;html=1;" parent="1" vertex="1">
          <mxGeometry x="-1000" y="350" width="120" height="60" as="geometry" />
        </mxCell>
        <mxCell id="Qfdq_ZXQbuD-KAgKmHoL-82" value="heeft een" style="rhombus;whiteSpace=wrap;html=1;" parent="1" vertex="1">
          <mxGeometry x="-1130" y="290" width="80" height="80" as="geometry" />
        </mxCell>
        <mxCell id="Qfdq_ZXQbuD-KAgKmHoL-83" value="" style="endArrow=none;html=1;rounded=0;exitX=1;exitY=0.5;exitDx=0;exitDy=0;entryX=0;entryY=0.5;entryDx=0;entryDy=0;" parent="1" source="QebJ3ofcSr1ksDJGPEAw-1" target="Qfdq_ZXQbuD-KAgKmHoL-82" edge="1">
          <mxGeometry width="50" height="50" relative="1" as="geometry">
            <mxPoint x="-790" y="410" as="sourcePoint" />
            <mxPoint x="-740" y="360" as="targetPoint" />
          </mxGeometry>
        </mxCell>
        <mxCell id="Qfdq_ZXQbuD-KAgKmHoL-84" value="" style="endArrow=none;html=1;rounded=0;exitX=1;exitY=0.5;exitDx=0;exitDy=0;entryX=0;entryY=0;entryDx=0;entryDy=0;" parent="1" source="Qfdq_ZXQbuD-KAgKmHoL-82" target="Qfdq_ZXQbuD-KAgKmHoL-81" edge="1">
          <mxGeometry width="50" height="50" relative="1" as="geometry">
            <mxPoint x="-790" y="410" as="sourcePoint" />
            <mxPoint x="-740" y="360" as="targetPoint" />
          </mxGeometry>
        </mxCell>
        <mxCell id="Qfdq_ZXQbuD-KAgKmHoL-87" value="sale" style="ellipse;whiteSpace=wrap;html=1;direction=west;" parent="1" vertex="1">
          <mxGeometry x="-880" y="430" width="60" height="60" as="geometry" />
        </mxCell>
        <mxCell id="Qfdq_ZXQbuD-KAgKmHoL-88" value="&lt;u&gt;cartID&lt;/u&gt;" style="ellipse;whiteSpace=wrap;html=1;direction=west;" parent="1" vertex="1">
          <mxGeometry x="-951.25" y="430" width="62.5" height="60" as="geometry" />
        </mxCell>
        <mxCell id="Qfdq_ZXQbuD-KAgKmHoL-89" value="one" style="text;html=1;align=center;verticalAlign=middle;resizable=0;points=[];autosize=1;strokeColor=none;fillColor=none;" parent="1" vertex="1">
          <mxGeometry x="-710" y="535" width="40" height="30" as="geometry" />
        </mxCell>
        <mxCell id="Qfdq_ZXQbuD-KAgKmHoL-90" value="" style="endArrow=none;html=1;rounded=0;entryX=1;entryY=1;entryDx=0;entryDy=0;" parent="1" source="Qfdq_ZXQbuD-KAgKmHoL-87" target="Qfdq_ZXQbuD-KAgKmHoL-81" edge="1">
          <mxGeometry width="50" height="50" relative="1" as="geometry">
            <mxPoint x="-790" y="430" as="sourcePoint" />
            <mxPoint x="-740" y="380" as="targetPoint" />
          </mxGeometry>
        </mxCell>
        <mxCell id="Qfdq_ZXQbuD-KAgKmHoL-91" value="" style="endArrow=none;html=1;rounded=0;entryX=0.617;entryY=0.967;entryDx=0;entryDy=0;entryPerimeter=0;exitX=0.5;exitY=1;exitDx=0;exitDy=0;" parent="1" source="Qfdq_ZXQbuD-KAgKmHoL-88" target="Qfdq_ZXQbuD-KAgKmHoL-81" edge="1">
          <mxGeometry width="50" height="50" relative="1" as="geometry">
            <mxPoint x="-855" y="444" as="sourcePoint" />
            <mxPoint x="-870" y="420" as="targetPoint" />
          </mxGeometry>
        </mxCell>
        <mxCell id="Qfdq_ZXQbuD-KAgKmHoL-92" value="toegevoegd&lt;br&gt;aan" style="rhombus;whiteSpace=wrap;html=1;" parent="1" vertex="1">
          <mxGeometry x="-750" y="310" width="80" height="80" as="geometry" />
        </mxCell>
        <mxCell id="Qfdq_ZXQbuD-KAgKmHoL-93" value="" style="endArrow=none;html=1;rounded=0;exitX=1;exitY=0.5;exitDx=0;exitDy=0;entryX=0;entryY=0.5;entryDx=0;entryDy=0;" parent="1" source="_y5mxG5AbXz_6xHoDtl2-1" target="Qfdq_ZXQbuD-KAgKmHoL-92" edge="1">
          <mxGeometry width="50" height="50" relative="1" as="geometry">
            <mxPoint x="-790" y="430" as="sourcePoint" />
            <mxPoint x="-740" y="380" as="targetPoint" />
          </mxGeometry>
        </mxCell>
        <mxCell id="Qfdq_ZXQbuD-KAgKmHoL-94" value="" style="endArrow=none;html=1;rounded=0;entryX=1;entryY=0.5;entryDx=0;entryDy=0;exitX=0;exitY=1;exitDx=0;exitDy=0;" parent="1" source="Qfdq_ZXQbuD-KAgKmHoL-97" target="Qfdq_ZXQbuD-KAgKmHoL-92" edge="1">
          <mxGeometry width="50" height="50" relative="1" as="geometry">
            <mxPoint x="-870" y="390" as="sourcePoint" />
            <mxPoint x="-740" y="360" as="targetPoint" />
          </mxGeometry>
        </mxCell>
        <mxCell id="Qfdq_ZXQbuD-KAgKmHoL-95" value="" style="endArrow=none;html=1;rounded=0;exitX=0;exitY=0.5;exitDx=0;exitDy=0;" parent="1" source="QebJ3ofcSr1ksDJGPEAw-73" target="Qfdq_ZXQbuD-KAgKmHoL-72" edge="1">
          <mxGeometry width="50" height="50" relative="1" as="geometry">
            <mxPoint x="-320" y="170" as="sourcePoint" />
            <mxPoint x="-543" y="187" as="targetPoint" />
          </mxGeometry>
        </mxCell>
        <mxCell id="Qfdq_ZXQbuD-KAgKmHoL-72" value="one" style="text;html=1;align=center;verticalAlign=middle;resizable=0;points=[];autosize=1;strokeColor=none;fillColor=none;" parent="1" vertex="1">
          <mxGeometry x="-400" y="160" width="40" height="30" as="geometry" />
        </mxCell>
        <mxCell id="Qfdq_ZXQbuD-KAgKmHoL-96" value="" style="endArrow=none;html=1;rounded=0;entryX=0.5;entryY=1;entryDx=0;entryDy=0;exitX=0.717;exitY=0.184;exitDx=0;exitDy=0;exitPerimeter=0;" parent="1" source="Qfdq_ZXQbuD-KAgKmHoL-60" target="Qfdq_ZXQbuD-KAgKmHoL-64" edge="1">
          <mxGeometry width="50" height="50" relative="1" as="geometry">
            <mxPoint x="-483" y="475" as="sourcePoint" />
            <mxPoint x="-260" y="200" as="targetPoint" />
          </mxGeometry>
        </mxCell>
        <mxCell id="Qfdq_ZXQbuD-KAgKmHoL-64" value="many" style="text;html=1;align=center;verticalAlign=middle;resizable=0;points=[];autosize=1;strokeColor=none;fillColor=none;" parent="1" vertex="1">
          <mxGeometry x="-320" y="230" width="50" height="30" as="geometry" />
        </mxCell>
        <mxCell id="Qfdq_ZXQbuD-KAgKmHoL-98" value="" style="endArrow=none;html=1;rounded=0;entryX=1;entryY=0.5;entryDx=0;entryDy=0;exitX=0;exitY=1;exitDx=0;exitDy=0;" parent="1" source="QebJ3ofcSr1ksDJGPEAw-73" target="Qfdq_ZXQbuD-KAgKmHoL-97" edge="1">
          <mxGeometry width="50" height="50" relative="1" as="geometry">
            <mxPoint x="-320" y="200" as="sourcePoint" />
            <mxPoint x="-670" y="350" as="targetPoint" />
          </mxGeometry>
        </mxCell>
        <mxCell id="Qfdq_ZXQbuD-KAgKmHoL-97" value="many" style="text;html=1;align=center;verticalAlign=middle;resizable=0;points=[];autosize=1;strokeColor=none;fillColor=none;" parent="1" vertex="1">
          <mxGeometry x="-405" y="205" width="50" height="30" as="geometry" />
        </mxCell>
        <mxCell id="Qfdq_ZXQbuD-KAgKmHoL-100" value="" style="endArrow=none;html=1;rounded=0;entryX=0.15;entryY=0.638;entryDx=0;entryDy=0;entryPerimeter=0;exitX=1;exitY=0.25;exitDx=0;exitDy=0;" parent="1" source="QebJ3ofcSr1ksDJGPEAw-19" target="Qfdq_ZXQbuD-KAgKmHoL-67" edge="1">
          <mxGeometry width="50" height="50" relative="1" as="geometry">
            <mxPoint x="-1070" y="655" as="sourcePoint" />
            <mxPoint x="-708" y="511" as="targetPoint" />
          </mxGeometry>
        </mxCell>
        <mxCell id="Qfdq_ZXQbuD-KAgKmHoL-67" value="many" style="text;html=1;align=center;verticalAlign=middle;resizable=0;points=[];autosize=1;strokeColor=none;fillColor=none;" parent="1" vertex="1">
          <mxGeometry x="-1050" y="620" width="50" height="30" as="geometry" />
        </mxCell>
        <mxCell id="Qfdq_ZXQbuD-KAgKmHoL-101" value="one" style="text;html=1;align=center;verticalAlign=middle;resizable=0;points=[];autosize=1;strokeColor=none;fillColor=none;" parent="1" vertex="1">
          <mxGeometry x="-1230" y="268" width="40" height="30" as="geometry" />
        </mxCell>
        <mxCell id="Qfdq_ZXQbuD-KAgKmHoL-102" value="one" style="text;html=1;align=center;verticalAlign=middle;resizable=0;points=[];autosize=1;strokeColor=none;fillColor=none;" parent="1" vertex="1">
          <mxGeometry x="-1010" y="315" width="40" height="30" as="geometry" />
        </mxCell>
        <mxCell id="U1igSkRN-edEC2leCV89-1" value="" style="endArrow=none;html=1;rounded=0;exitX=1;exitY=0.5;exitDx=0;exitDy=0;entryX=0;entryY=0.5;entryDx=0;entryDy=0;" edge="1" parent="1" source="Qfdq_ZXQbuD-KAgKmHoL-81" target="_y5mxG5AbXz_6xHoDtl2-1">
          <mxGeometry width="50" height="50" relative="1" as="geometry">
            <mxPoint x="-880" y="380" as="sourcePoint" />
            <mxPoint x="-750" y="350" as="targetPoint" />
          </mxGeometry>
        </mxCell>
        <mxCell id="_y5mxG5AbXz_6xHoDtl2-1" value="one" style="text;html=1;align=center;verticalAlign=middle;resizable=0;points=[];autosize=1;strokeColor=none;fillColor=none;" parent="1" vertex="1">
          <mxGeometry x="-830" y="355" width="40" height="30" as="geometry" />
        </mxCell>
      </root>
    </mxGraphModel>
  </diagram>
</mxfile>
